Coordinates
version=1
nRows=19
nColumns=36
inDegrees=yes

Units are S.I. units (second, meters, Newtons, ...)
If the header above contains a line with 'inDegrees', this indicates whether rotational values are in degrees (yes) or radians (no).

endheader
time	pelvis_tilt	pelvis_list	pelvis_rotation	pelvis_tx	pelvis_ty	pelvis_tz	hip_flexion_r	hip_adduction_r	hip_rotation_r	knee_angle_r	knee_angle_r_beta	ankle_angle_r	subtalar_angle_r	mtp_angle_r	hip_flexion_l	hip_adduction_l	hip_rotation_l	knee_angle_l	knee_angle_l_beta	ankle_angle_l	subtalar_angle_l	mtp_angle_l	lumbar_extension	lumbar_bending	lumbar_rotation	arm_flex_r	arm_add_r	arm_rot_r	elbow_flex_r	pro_sup_r	arm_flex_l	arm_add_l	arm_rot_l	elbow_flex_l	pro_sup_l
      2.25000000	      5.52205965	     -3.00337433	      5.98279845	      0.16344648	      0.96529499	     -0.01038585	     23.89146224	      1.53844629	     -0.79738556	      9.19629949	      0.16050571	      0.72026135	     -3.72903925	     -7.49999965	     -0.16447080	      2.14321344	     -1.35226272	     12.93303428	      0.22572403	      9.98449098	     12.53636879	     -7.49999965	     -7.94812708	      2.51037522	     -1.62855644	     34.89780414	     13.10546950	     57.09709674	    123.43853064	     95.06502547	     51.06093771	      8.79578834	     66.64980964	    122.94548384	     66.68726676
      2.26666670	      5.53499085	     -2.82851040	      5.92448606	      0.16274356	      0.96268711	     -0.01043819	     24.18241880	      1.23376442	     -0.62448687	      8.63793415	      0.15076039	      0.88677651	     -3.46034408	     -7.49999965	      0.05902588	      2.38339253	     -1.32529897	     13.01562769	      0.22716556	     10.27040441	     12.26699926	     -7.49999965	     -8.45096329	      2.37052371	     -1.51015733	     34.98677101	     13.05414076	     56.95917503	    123.37304839	     95.11841600	     51.22024872	      8.77532127	     66.54062578	    123.03152120	     66.71341633
      2.28333330	      5.65915586	     -2.63445108	      6.00177074	      0.16047798	      0.96112089	     -0.01056590	     24.37465227	      0.82838019	     -1.25465977	      8.02714945	      0.14010019	      1.64302734	     -1.56817341	     -7.49999968	      0.21226025	      2.72911109	     -0.54716227	     13.14713233	      0.22946075	     10.47574043	     10.39811541	     -7.49999968	     -9.31885481	      2.21545994	     -0.93174659	     35.02088974	     12.97912840	     56.89525599	    123.55404952	     95.19267556	     51.53442668	      9.11185321	     66.92032141	    123.04132413	     67.00301686
      2.30000000	      5.63237942	     -2.38677993	      5.76970861	      0.15866053	      0.96651913	     -0.00969511	     24.53380390	      0.63634905	     -1.70282220	      7.25917194	      0.12669645	      1.70863701	     -0.16500969	     -7.49999969	      0.20817935	      3.13814744	     -0.24427721	     12.65287350	      0.22083430	     10.31011255	      9.33505443	     -7.49999969	    -10.07224515	      1.90324669	     -0.83579667	     35.03008925	     12.96211301	     56.90795836	    123.56444777	     95.94617202	     51.53468325	      8.92155637	     67.01396595	    122.97346714	     67.30317697
      2.31666670	      5.60233160	     -2.21671690	      5.44655765	      0.15757482	      0.96196059	     -0.01004448	     24.82327345	      0.59951832	     -1.68033966	      6.45216124	      0.11261146	      1.63975313	      0.36451971	     -7.49999969	      0.38097256	      3.43311742	      0.10249022	     12.72299650	      0.22205818	     10.61676794	      8.95486180	     -7.49999969	    -10.65397138	      1.76712031	     -0.30516218	     35.14854883	     13.11592968	     57.20579943	    123.41450503	     95.99731591	     51.40496171	      8.84628955	     67.05762700	    122.98003920	     67.33622132
      2.33333330	      5.78719378	     -2.12514842	      5.27150931	      0.15671289	      0.95994534	     -0.00962730	     24.85564470	      0.46492795	     -3.07589562	      5.64578485	      0.09853753	      2.20063922	      2.84524535	     -7.49999971	      0.30823766	      3.72814457	      1.12003878	     12.92147717	      0.22552232	     11.03123303	      6.68039759	     -7.49999971	    -11.59491100	      1.80985627	      0.07007093	     35.49359382	     13.20778949	     58.32990570	    123.11047068	     95.99406350	     51.45166537	      8.86328918	     67.41541227	    123.13031831	     67.45225000
      2.35000000	      5.86661925	     -1.98994236	      4.90982370	      0.15412498	      0.96071920	     -0.00964891	     25.02019293	      0.45024005	     -4.37221806	      4.41729182	      0.07709629	      1.47591676	      4.07264864	     -7.49999973	      0.44256351	      4.07252569	      1.54711240	     13.24320821	      0.23113759	     11.37366852	      5.69892540	     -7.49999973	    -12.51968852	      1.76255261	      0.45543626	     35.69036926	     13.22304344	     59.19272025	    123.05732407	     94.37157978	     51.59327682	      8.77003763	     67.52890220	    123.15730814	     67.10249192
      2.36666670	      6.04650936	     -1.94779235	      4.34908307	      0.15246004	      0.95789989	     -0.00864246	     25.17001932	      0.60256038	     -5.10036792	      3.64789337	      0.06366775	      1.05595732	      5.00009168	     -7.49999974	      1.12245712	      4.25547236	      1.86529700	     14.45907966	      0.25235855	     12.89944721	      4.05967063	     -7.49999974	    -13.55961875	      1.64258622	      0.96395908	     35.87333212	     13.12937802	     59.71335201	    123.06396090	     94.71589906	     51.68472613	      8.82056047	     67.64744405	    123.03337973	     67.27549176
      2.38333330	      6.28473884	     -1.69047357	      3.75886936	      0.15103081	      0.95536558	     -0.00904581	     25.43258352	      0.49899368	     -6.40009818	      3.11305325	      0.05433303	      0.93702015	      6.30293559	     -7.49999974	      1.98326410	      4.64227665	      2.13432711	     15.80392358	      0.27583050	     14.62733669	      0.85863578	     -7.49999974	    -14.81416042	      1.26318890	      1.53282065	     35.96061683	     12.83578939	     59.87177317	    123.30959711	     95.55605223	     51.79958476	      8.96760350	     68.01496986	    122.93416533	     67.80683028
      2.40000000	      6.45098569	     -1.19831818	      2.89712508	      0.15051726	      0.95224203	     -0.00682783	     25.84489413	      0.41875060	     -7.19310964	      2.52865354	      0.04413333	      0.65384242	      6.79160208	     -7.49999975	      2.92939828	      5.10868298	      1.97841095	     17.59866962	      0.30715473	     16.38219580	     -1.84832176	     -7.49999975	    -16.09356176	      0.43361576	      2.10397146	     36.13849601	     12.63397617	     60.08431600	    123.52404568	     96.10166508	     51.93795741	      9.04335281	     68.46509353	    122.98616581	     68.23805713
      2.41666670	      6.58334868	     -0.79861373	      2.21247607	      0.14869934	      0.94749603	     -0.00685061	     26.25780963	      0.30341663	     -7.38666301	      2.18941099	      0.03821243	      0.56166190	      7.20178463	     -7.49999975	      3.99981363	      5.71518837	      2.62479300	     19.80181071	      0.34560679	     17.94565834	     -4.10518971	     -7.49999975	    -17.12725921	     -0.20131545	      2.50591042	     36.38255983	     12.71867354	     60.61900411	    123.46788358	     96.54339732	     52.18409992	      9.22730072	     68.87836147	    123.01589821	     68.60820319
      2.43333330	      6.65964467	     -0.47772781	      1.86801911	      0.14583077	      0.94328927	     -0.00651315	     26.73355506	      0.08516006	     -6.90287275	      1.91293576	      0.03338703	      0.98306056	      8.03657457	     -7.49999980	      5.22459096	      6.35870851	      3.17187215	     22.13513900	      0.38633106	     18.91379998	     -6.50266950	     -7.49999980	    -18.11153705	     -0.74357122	      2.68481645	     36.63634600	     12.87735331	     60.96628452	    123.40232197	     98.47700201	     52.72116581	      9.45993974	     69.08948395	    122.92078201	     70.30801990
      2.45000000	      6.90950159	     -0.08631061	      1.33769927	      0.14537039	      0.94038684	     -0.00637275	     27.24079993	     -0.08707964	     -7.51103701	      1.56631947	      0.02733743	      0.60671656	      8.41128676	     -7.49999980	      6.12283846	      7.03874962	      3.04589065	     24.29569937	      0.42403995	     19.82901107	     -8.42963519	     -7.49999980	    -19.19560153	     -1.31476036	      2.90324160	     37.01615627	     13.15487278	     61.27665960	    123.06245495	     98.52239189	     53.36107927	      9.44147837	     69.18236669	    122.97229847	     70.37201165
      2.46666670	      6.97641027	      0.07451209	      1.22324728	      0.14269382	      0.93680450	     -0.00787129	     27.76629725	     -0.34565290	     -7.26272108	      1.41880683	      0.02476285	      0.59398928	      8.59867367	     -7.49999982	      7.34251276	      7.63792922	      3.49055748	     26.63836894	      0.46492725	     20.73749694	    -10.65795429	     -7.49999982	    -20.20088468	     -1.50188917	      2.85983847	     37.19875646	     13.29169784	     61.73139660	    122.94210836	     99.02141116	     53.88096224	      9.45128946	     69.30520282	    122.97661062	     70.83660400
      2.48333330	      7.25899178	      0.36395635	      0.94669706	      0.14194736	      0.92950370	     -0.00622577	     28.05850792	     -0.55204459	     -7.20465962	      1.11342227	      0.01943288	      0.84302842	      9.12300015	     -7.49999983	      8.41574924	      8.18815818	      3.33095290	     28.93860557	      0.50507395	     21.10950068	    -12.68707028	     -7.49999983	    -21.14255030	     -1.87259548	      2.92456842	     37.58567826	     13.37959782	     61.63330873	    122.83265405	     98.22412053	     54.46999465	      9.37813429	     69.25476215	    122.97561725	     70.70799189
      2.50000000	      7.38312560	      0.57453975	      0.72286520	      0.13977336	      0.92562974	     -0.00751150	     28.55448605	     -0.82455966	     -6.88367023	      0.95341412	      0.01664022	      0.65969716	      8.97943052	     -7.49999984	      9.75958061	      8.74434653	      3.24787325	     31.21291395	      0.54476812	     21.25467030	    -14.36394015	     -7.49999984	    -22.10396182	     -1.97668462	      3.05216543	     37.99259921	     13.35822950	     61.70229878	    122.55679031	     98.90255070	     54.70826247	      9.26404438	     69.23697068	    123.22559777	     71.44373644
      2.51666670	      7.37133940	      0.70914580	      0.74141789	      0.13838014	      0.91893383	     -0.00760958	     29.06208021	     -1.19340783	     -5.99825858	      0.83784213	      0.01462310	      1.22490967	      9.26943320	     -7.49999984	     11.11903744	      9.15405223	      3.27819035	     33.46882001	      0.58414111	     22.22717793	    -15.75622934	     -7.49999984	    -22.92764730	     -2.16192066	      2.95894165	     38.31326876	     13.32059604	     61.69296065	    122.48885527	     98.81697543	     55.04196010	      9.35172925	     69.42734851	    123.26179845	     71.47487265
      2.53333330	      7.03185890	      0.90333007	      0.73153813	      0.13608755	      0.91504136	     -0.00780974	     30.03559758	     -1.52597001	     -6.05310494	      0.74870317	      0.01306734	      1.45281369	      9.80534816	     -7.49999985	     12.65137272	      9.61957831	      3.08442328	     35.17608697	      0.61393854	     22.16929283	    -17.79892275	     -7.49999985	    -23.46540640	     -2.37438343	      2.83998336	     38.48061407	     13.35371201	     61.94663788	    122.32667755	     99.57063541	     55.08649140	      9.33041604	     69.68915931	    123.59298017	     72.26267542
      2.55000000	      6.85759988	      0.97717103	      0.70817726	      0.13475524	      0.90967451	     -0.00760630	     30.71959665	     -1.75287213	     -5.55476217	      0.67580194	      0.01179497	      1.77526232	      9.83834172	     -7.49999986	     13.94247167	      9.81536904	      2.89174411	     36.92229949	      0.64441569	     22.51833341	    -18.92787428	     -7.49999986	    -24.10224870	     -2.52603650	      2.88217190	     38.73086446	     13.31243295	     61.90401067	    122.33966156	     99.85518036	     55.15988883	      9.42019695	     69.94454287	    123.80924437	     72.61361728
